<?xml version="1.0" encoding="utf-8"?>
<svg viewBox="0 0 435 174" xmlns="http://www.w3.org/2000/svg" xmlns:bx="https://boxy-svg.com">
  <g transform="matrix(0.1, 0, 0, -0.1, -26.96743, 228.390839)" fill="#000000" stroke="none" bx:origin="0.465634 0.5">
    <path d="M803 2172 l-193 -97 0 -203 0 -203 -165 -81 -165 -82 2 -415 3 -416 107 -55 108 -55 165 82 165 83 102 -50 103 -50 209 107 210 108 138 270 138 270 0 200 0 200 -154 140 -154 140 -206 103 c-114 56 -210 102 -214 101 -4 0 -94 -44 -199 -97z m387 -31 l175 -89 -167 -83 -168 -84 -171 85 c-94 47 -173 88 -175 92 -5 8 302 167 321 167 6 0 89 -40 185 -88z m-360 -201 l180 -90 0 -180 0 -180 -180 90 -179 90 -3 180 c-2 99 -2 180 0 180 1 0 83 -41 182 -90z m748 -69 l112 -104 0 -188 0 -187 -135 -264 -134 -263 -186 -93 -185 -92 2 181 3 181 160 82 160 81 3 209 c1 132 -1 213 -8 220 -7 7 -57 -14 -157 -65 -81 -40 -151 -75 -155 -77 -4 -2 -8 78 -8 177 l0 181 178 89 177 89 30 -27 c17 -15 81 -74 143 -130z m-765 -327 l172 -87 -140 -69 -140 -70 -180 90 -180 89 130 66 c72 36 138 66 148 66 9 1 95 -38 190 -85z m522 -282 c-3 -4 -39 11 -80 31 l-75 37 0 90 0 90 78 39 77 39 3 -161 c1 -88 0 -162 -3 -165z m-195 148 l0 -80 -40 -20 c-21 -11 -42 -20 -45 -20 -3 0 -5 35 -5 78 l0 78 43 21 c23 12 43 22 45 22 1 1 2 -35 2 -79z m-637 -36 c94 -47 173 -87 175 -89 2 -2 4 -209 2 -337 l0 -27 -91 45 c-51 25 -95 42 -100 37 -5 -5 -10 -93 -11 -196 l-3 -187 -75 39 -75 39 -3 381 c-1 210 0 381 3 381 3 0 83 -39 178 -86z m507 -132 l0 -177 -135 -68 c-74 -37 -140 -67 -145 -67 -6 0 -10 66 -10 175 l0 175 138 69 c75 39 140 70 145 70 4 1 7 -79 7 -177z m233 12 l72 -37 -125 -63 c-69 -35 -128 -63 -132 -63 -5 -1 -8 34 -8 77 l0 78 43 21 c57 29 67 28 150 -13z m-233 -404 l0 -170 -80 40 -80 40 0 90 0 89 73 39 c39 22 75 40 80 41 4 0 7 -76 7 -169z m-271 36 c20 9 44 21 54 26 15 8 17 2 17 -71 l0 -80 -140 -70 c-77 -39 -143 -71 -145 -71 -3 0 -5 77 -5 170 l0 170 91 -46 91 -45 37 17z"/>
    <path d="M2040 1420 l0 -362 125 4 c139 4 161 13 200 79 18 30 20 56 23 233 4 233 -1 293 -32 338 -33 50 -67 61 -198 66 l-118 4 0 -362z m218 238 c9 -9 12 -76 12 -240 l0 -228 -24 -15 c-14 -9 -39 -15 -58 -13 l-33 3 -3 253 -2 252 48 0 c26 0 53 -5 60 -12z"/>
    <path d="M2460 1420 l0 -360 150 0 150 0 0 50 0 50 -95 0 -95 0 0 105 0 105 75 0 75 0 0 55 0 55 -75 0 -75 0 0 95 0 95 95 0 95 0 0 55 0 55 -150 0 -150 0 0 -360z"/>
    <path d="M2810 1763 c0 -10 23 -172 52 -360 l52 -343 82 0 c82 0 82 0 88 28 6 30 106 677 106 686 0 3 -22 6 -49 6 -42 0 -49 -3 -54 -22 -3 -13 -22 -142 -43 -287 -22 -154 -41 -256 -45 -245 -4 11 -24 139 -45 287 l-38 267 -53 0 c-44 0 -53 -3 -53 -17z"/>
    <path d="M3247 1774 c-4 -4 -7 -166 -6 -360 l0 -354 59 0 60 0 0 135 0 135 38 0 c136 0 192 81 179 261 -7 112 -36 157 -112 178 -43 12 -207 15 -218 5z m210 -131 c4 -16 6 -65 3 -111 -5 -91 -13 -102 -67 -102 l-33 0 0 120 0 120 44 0 c39 0 45 -3 53 -27z"/>
    <path d="M3620 1420 l0 -360 65 0 65 0 0 360 0 360 -65 0 -65 0 0 -360z"/>
    <path d="M3828 1774 c-5 -4 -8 -166 -8 -361 l0 -353 55 0 55 0 0 144 c0 142 0 145 23 148 31 5 74 -10 83 -30 5 -9 11 -71 14 -137 l5 -120 55 -3 55 -3 -3 103 c-4 153 -10 185 -41 220 l-27 31 22 22 c31 31 47 98 42 176 -10 132 -46 161 -212 167 -61 2 -114 1 -118 -4z m212 -140 c15 -43 9 -136 -9 -158 -9 -10 -30 -16 -57 -16 l-44 0 0 105 0 105 49 0 c48 0 50 -1 61 -36z"/>
    <path d="M4315 1758 c-10 -46 -105 -656 -105 -676 0 -20 5 -22 49 -22 l49 0 7 65 7 65 73 0 73 0 7 -65 7 -65 57 0 57 0 -38 238 c-21 130 -45 282 -53 337 -24 160 -13 145 -105 145 -74 0 -80 -1 -85 -22z m105 -273 c12 -82 24 -160 27 -172 5 -22 2 -23 -51 -23 l-57 0 5 33 c10 58 46 305 46 313 0 4 2 5 4 3 2 -2 14 -71 26 -154z"/>
  </g>
</svg>