<!DOCTYPE svg PUBLIC "-//W3C//DTD SVG 1.1//EN" "http://www.w3.org/Graphics/SVG/1.1/DTD/svg11.dtd">
<!-- Uploaded to: SVG Repo, www.svgrepo.com, Transformed by: SVG Repo Mixer Tools -->
<svg width="800px" height="800px" viewBox="-3.2 -3.2 38.40 38.40" xmlns="http://www.w3.org/2000/svg" fill="#000000" transform="rotate(-45)matrix(1, 0, 0, 1, 0, 0)">
<g id="SVGRepo_bgCarrier" stroke-width="0"/>
<g id="SVGRepo_tracerCarrier" stroke-linecap="round" stroke-linejoin="round" stroke="#CCCCCC" stroke-width="0.064"/>
<g id="SVGRepo_iconCarrier"> <defs> <style>.cls-1{fill:#04009a;}.cls-2{fill:#77acf1;}</style> </defs> <g data-name="19. Send" id="_19._Send"> <path class="cls-1" d="M21,16.6a3,3,0,0,1-1.66-.51l-4.89-3.26a1,1,0,0,1,1.1-1.66l4.9,3.26a1,1,0,0,0,1.1,0l4.9-3.26a1,1,0,0,1,1.1,1.66l-4.89,3.26A3,3,0,0,1,21,16.6Z"/> <path class="cls-1" d="M29,25H13a3,3,0,0,1-3-3V10a3,3,0,0,1,3-3H29a3,3,0,0,1,3,3V22A3,3,0,0,1,29,25ZM13,9a1,1,0,0,0-1,1V22a1,1,0,0,0,1,1H29a1,1,0,0,0,1-1V10a1,1,0,0,0-1-1Z"/> <path class="cls-2" d="M7,19H5a1,1,0,0,1,0-2H7a1,1,0,0,1,0,2Z"/> <path class="cls-2" d="M7,15H3a1,1,0,0,1,0-2H7a1,1,0,0,1,0,2Z"/> <path class="cls-2" d="M7,11H1A1,1,0,0,1,1,9H7a1,1,0,0,1,0,2Z"/> </g> </g>
</svg>