<svg width="625" height="560" viewBox="0 0 625 560" fill="none" xmlns="http://www.w3.org/2000/svg">
<path d="M209.908 62.5966C207.874 62.5966 132.23 97.5022 127.754 183.478C123.639 262.603 178.281 337.591 185.334 332.686C193.97 326.604 179.298 277.366 196.095 221.028C202.041 201.043 228.085 183.319 228.085 183.319L209.908 62.5966Z" fill="url(#paint0_linear_224_865)"/>
<path opacity="0.1" d="M228.107 183.252C220.5 188.639 213.55 194.898 207.399 201.903C196.096 176.786 175.161 129.898 161.597 99.5143C183.752 73.9003 208.756 62.5966 209.909 62.5966L228.107 183.252Z" fill="black"/>
<path d="M402.432 62.7324C404.444 62.7324 480.043 97.751 484.406 183.726C488.407 262.852 433.63 337.772 426.599 332.799C417.963 326.695 432.726 277.479 416.019 221.119C410.096 201.134 384.052 183.365 384.052 183.365L402.432 62.7324Z" fill="url(#paint1_linear_224_865)"/>
<path opacity="0.1" d="M450.969 100.057C437.269 130.712 416.244 177.69 405.122 202.513C398.887 195.335 391.821 188.922 384.074 183.41L402.431 62.755C403.584 62.7098 428.791 74.1717 450.969 100.057Z" fill="black"/>
<path d="M363.366 260.388H249.222C249.222 260.388 195.462 164.239 201.747 49.6201C204.957 -7.59888 219.833 -65.2022 237.919 -112.881C262.742 -178.804 293.374 -225.488 306.6 -225.488C319.825 -225.488 350.412 -178.736 375.145 -112.858C393.027 -65.1796 407.903 -7.53105 411.023 49.6879C417.375 164.307 363.366 260.388 363.366 260.388Z" fill="#303252"/>
<path d="M374.76 34.8349C374.747 47.8553 370.873 60.5794 363.628 71.398C356.383 82.2166 346.093 90.6439 334.058 95.6142C322.024 100.584 308.786 101.875 296.018 99.3212C283.251 96.7679 271.527 90.4859 262.33 81.2696C253.132 72.0533 246.874 60.3167 244.347 47.5438C241.82 34.771 243.138 21.5356 248.133 9.5115C253.128 -2.51265 261.576 -12.7855 272.41 -20.0081C283.243 -27.2307 295.975 -31.0786 308.996 -31.0652C317.642 -31.0593 326.202 -29.3497 334.187 -26.0341C342.172 -22.7186 349.426 -17.862 355.533 -11.742C361.641 -5.62205 366.482 1.64144 369.781 9.63334C373.08 17.6252 374.772 26.1889 374.76 34.8349Z" fill="#4F5289"/>
<path d="M372.432 28.1432C372.423 41.1617 368.554 53.8852 361.315 64.7053C354.076 75.5254 343.791 83.9563 331.761 88.9321C319.731 93.9078 306.496 95.2051 293.728 92.6598C280.961 90.1146 269.235 83.8411 260.033 74.6324C250.83 65.4238 244.565 53.6936 242.029 40.9246C239.492 28.1556 240.798 14.9212 245.782 2.89457C250.766 -9.13209 259.204 -19.411 270.029 -26.6428C280.854 -33.8745 293.581 -37.7344 306.599 -37.7344C315.249 -37.7373 323.815 -36.0351 331.806 -32.7249C339.798 -29.4148 347.058 -24.5617 353.172 -18.4432C359.287 -12.3247 364.135 -5.06089 367.439 2.93282C370.744 10.9265 372.44 19.4933 372.432 28.1432Z" fill="url(#paint2_linear_224_865)"/>
<path d="M352.058 32.6476C354.553 7.5629 336.24 -14.7949 311.155 -17.2898C286.071 -19.7848 263.713 -1.4721 261.218 23.6126C258.723 48.6974 277.036 71.0551 302.12 73.5501C327.205 76.045 349.563 57.7324 352.058 32.6476Z" fill="#373965"/>
<path d="M352.267 28.0755C352.279 33.7369 351.229 39.3504 349.169 44.624L323.171 70.6675C313.986 74.2152 303.901 74.7067 294.415 72.0692L350.594 15.8902C351.702 19.8571 352.265 23.9566 352.267 28.0755Z" fill="#303252"/>
<path d="M313.382 -17.0714L261.385 34.7897C261.054 32.5441 260.888 30.2773 260.887 28.0075C260.929 15.9156 265.765 4.33384 274.335 -4.19742C282.904 -12.7287 294.507 -17.513 306.599 -17.5009C308.867 -17.5229 311.134 -17.3794 313.382 -17.0714Z" fill="#303252"/>
<path d="M346.569 5.98818L284.512 68.0225C283.31 67.3347 282.148 66.58 281.031 65.7618L344.331 2.46146C345.167 3.59182 345.891 4.76739 346.569 5.98818Z" fill="#303252"/>
<path d="M261.385 242.754C261.385 243.514 261.16 244.257 260.737 244.889C260.315 245.521 259.715 246.014 259.012 246.305C258.31 246.596 257.537 246.672 256.792 246.523C256.046 246.375 255.362 246.009 254.824 245.472C254.287 244.934 253.921 244.249 253.772 243.504C253.624 242.758 253.7 241.986 253.991 241.283C254.282 240.581 254.775 239.981 255.407 239.558C256.039 239.136 256.782 238.911 257.542 238.911C258.561 238.911 259.539 239.316 260.259 240.036C260.98 240.757 261.385 241.735 261.385 242.754Z" fill="#4F5289"/>
<path d="M285.869 242.776C285.869 243.537 285.644 244.28 285.221 244.912C284.799 245.544 284.199 246.036 283.497 246.327C282.794 246.618 282.022 246.694 281.276 246.546C280.531 246.398 279.846 246.032 279.308 245.494C278.771 244.957 278.405 244.272 278.256 243.526C278.108 242.781 278.184 242.008 278.475 241.306C278.766 240.603 279.259 240.003 279.891 239.581C280.523 239.159 281.266 238.933 282.026 238.933C283.045 238.933 284.023 239.338 284.743 240.059C285.464 240.78 285.869 241.757 285.869 242.776Z" fill="#4F5289"/>
<path d="M310.262 242.799C310.262 243.56 310.036 244.304 309.613 244.937C309.19 245.569 308.588 246.062 307.885 246.352C307.181 246.642 306.407 246.717 305.661 246.567C304.915 246.417 304.23 246.048 303.694 245.509C303.157 244.969 302.793 244.282 302.647 243.535C302.501 242.788 302.581 242.014 302.875 241.313C303.169 240.611 303.665 240.012 304.3 239.592C304.935 239.173 305.681 238.951 306.442 238.956C306.945 238.956 307.444 239.055 307.909 239.249C308.374 239.442 308.796 239.726 309.151 240.083C309.506 240.44 309.787 240.864 309.978 241.33C310.169 241.796 310.265 242.295 310.262 242.799Z" fill="#4F5289"/>
<path d="M334.678 242.799C334.678 243.559 334.453 244.302 334.03 244.934C333.608 245.566 333.008 246.059 332.306 246.35C331.603 246.641 330.831 246.717 330.085 246.569C329.34 246.42 328.655 246.054 328.117 245.517C327.58 244.979 327.214 244.294 327.066 243.549C326.917 242.803 326.993 242.031 327.284 241.328C327.575 240.626 328.068 240.026 328.7 239.604C329.332 239.181 330.075 238.956 330.835 238.956C331.854 238.956 332.832 239.361 333.553 240.082C334.273 240.802 334.678 241.78 334.678 242.799Z" fill="#4F5289"/>
<path d="M359.094 242.822C359.094 243.582 358.868 244.325 358.446 244.957C358.024 245.589 357.423 246.082 356.721 246.372C356.019 246.663 355.246 246.739 354.501 246.591C353.755 246.443 353.07 246.077 352.533 245.539C351.995 245.002 351.629 244.317 351.481 243.572C351.333 242.826 351.409 242.053 351.7 241.351C351.991 240.649 352.483 240.049 353.115 239.626C353.747 239.204 354.49 238.979 355.25 238.979C356.27 238.979 357.247 239.383 357.968 240.104C358.689 240.825 359.094 241.802 359.094 242.822Z" fill="#4F5289"/>
<path d="M352.832 294.705L260.006 294.615L255.666 260.32L357.217 260.388L352.832 294.705Z" fill="url(#paint3_linear_224_865)"/>
<path opacity="0.1" d="M357.217 260.41L355.07 277.094L257.339 273.432L255.688 260.32L357.217 260.41Z" fill="black"/>
<path opacity="0.6" d="M94.5889 461.773C94.5889 465.015 93.6276 468.183 91.8266 470.879C90.0256 473.574 87.4658 475.675 84.4709 476.916C81.476 478.156 78.1804 478.481 75.001 477.848C71.8216 477.216 68.9012 475.655 66.6089 473.363C64.3167 471.07 62.7557 468.15 62.1233 464.97C61.4909 461.791 61.8154 458.496 63.056 455.501C64.2965 452.506 66.3973 449.946 69.0927 448.145C71.7881 446.344 74.9569 445.383 78.1986 445.383C82.5456 445.383 86.7145 447.109 89.7883 450.183C92.8621 453.257 94.5889 457.426 94.5889 461.773Z" fill="url(#paint4_linear_224_865)"/>
<path opacity="0.6" d="M106.525 438.42C110.933 438.42 114.506 434.847 114.506 430.439C114.506 426.032 110.933 422.459 106.525 422.459C102.118 422.459 98.5449 426.032 98.5449 430.439C98.5449 434.847 102.118 438.42 106.525 438.42Z" fill="url(#paint5_linear_224_865)"/>
<path opacity="0.6" d="M465.076 453.815C465.072 455.393 464.6 456.933 463.72 458.243C462.841 459.552 461.593 460.571 460.134 461.172C458.676 461.773 457.072 461.927 455.525 461.617C453.979 461.306 452.559 460.545 451.445 459.428C450.331 458.311 449.573 456.889 449.267 455.341C448.961 453.794 449.12 452.19 449.725 450.733C450.33 449.277 451.353 448.031 452.665 447.156C453.976 446.28 455.518 445.812 457.096 445.812C458.146 445.812 459.185 446.019 460.155 446.422C461.125 446.824 462.005 447.414 462.747 448.158C463.488 448.901 464.075 449.784 464.475 450.754C464.875 451.725 465.079 452.765 465.076 453.815Z" fill="url(#paint6_linear_224_865)"/>
<path opacity="0.6" d="M625 526.701C625 528.279 624.532 529.822 623.655 531.135C622.778 532.447 621.532 533.47 620.074 534.074C618.616 534.678 617.011 534.836 615.463 534.528C613.915 534.22 612.493 533.46 611.377 532.344C610.261 531.228 609.501 529.806 609.193 528.258C608.885 526.71 609.043 525.105 609.647 523.647C610.251 522.189 611.274 520.943 612.586 520.066C613.899 519.189 615.442 518.721 617.02 518.721C619.135 518.727 621.161 519.569 622.656 521.065C624.152 522.56 624.994 524.586 625 526.701Z" fill="url(#paint7_linear_224_865)"/>
<path opacity="0.6" d="M612.77 550.054C612.77 551.306 612.523 552.546 612.043 553.702C611.563 554.858 610.86 555.908 609.974 556.792C609.088 557.676 608.036 558.377 606.879 558.854C605.721 559.331 604.481 559.575 603.229 559.572H9.51764C6.9934 559.572 4.57256 558.569 2.78765 556.784C1.00274 554.999 0 552.579 0 550.054C0 547.53 1.00274 545.109 2.78765 543.324C4.57256 541.539 6.9934 540.537 9.51764 540.537C10.2794 540.535 11.0386 540.626 11.7784 540.808C11.7726 537.075 12.8804 533.425 14.9603 530.325C17.0401 527.225 19.9974 524.816 23.4539 523.405C26.9103 521.995 30.7089 521.648 34.3638 522.408C38.0187 523.168 41.3637 525.002 43.9711 527.673H44.152C44.152 526.52 43.9711 525.412 43.9711 524.169C43.9711 514.768 47.7058 505.751 54.3536 499.103C61.0014 492.456 70.0178 488.721 79.4193 488.721C84.8285 488.706 90.1678 489.944 95.0183 492.338C95.3565 486.575 97.6555 481.101 101.534 476.825C105.412 472.549 110.636 469.728 116.339 468.83C122.041 467.933 127.88 469.012 132.884 471.89C137.888 474.768 141.758 479.271 143.85 484.652C147.675 478.612 153.236 473.869 159.804 471.045C166.372 468.222 173.64 467.448 180.655 468.826C180.161 466.096 179.919 463.327 179.931 460.552C179.914 451.37 182.533 442.376 187.476 434.638C192.42 426.9 199.48 420.743 207.818 416.899C216.157 413.055 225.424 411.684 234.518 412.95C243.613 414.216 252.153 418.066 259.124 424.042C259.927 422.491 261.14 421.19 262.631 420.281C264.122 419.373 265.833 418.89 267.579 418.887C268.835 418.891 270.079 419.137 271.242 419.611L280.217 294.479H332.53L341.437 419.543C342.579 419.077 343.799 418.832 345.032 418.819C346.778 418.822 348.49 419.305 349.981 420.214C351.471 421.122 352.684 422.423 353.487 423.974C360.983 417.517 370.292 413.536 380.138 412.576C389.985 411.616 399.887 413.724 408.489 418.61C417.091 423.497 423.972 430.923 428.19 439.872C432.407 448.821 433.754 458.856 432.047 468.6C434.281 468.162 436.553 467.942 438.829 467.945C444.828 467.935 450.731 469.451 455.983 472.35C461.234 475.249 465.663 479.435 468.852 484.516C470.944 479.136 474.814 474.633 479.818 471.755C484.822 468.877 490.66 467.797 496.363 468.695C502.066 469.592 507.29 472.413 511.168 476.689C515.046 480.966 517.345 486.439 517.684 492.202C522.534 489.808 527.873 488.57 533.283 488.585C537.953 488.57 542.58 489.478 546.898 491.257C551.217 493.036 555.141 495.651 558.445 498.952C561.75 502.252 564.37 506.173 566.154 510.489C567.939 514.805 568.853 519.431 568.844 524.101C568.844 525.277 568.844 526.362 568.663 527.605H568.844C571.464 524.948 574.818 523.132 578.476 522.39C582.134 521.648 585.931 522.014 589.38 523.441C592.828 524.869 595.773 527.292 597.838 530.402C599.902 533.511 600.992 537.166 600.969 540.898C601.708 540.717 602.468 540.625 603.229 540.627C605.74 540.627 608.15 541.617 609.936 543.381C611.722 545.146 612.74 547.544 612.77 550.054Z" fill="url(#paint8_linear_224_865)"/>
<path d="M462.228 471.675L449.885 473.958L447.127 486.98L444.368 473.958L432.025 471.675L444.301 468.668L447.127 456.37L449.93 468.668L462.228 471.675Z" fill="#FDFDFD"/>
<path d="M342.138 367.297L329.795 369.581L327.037 382.602L324.256 369.581L311.912 367.297L324.211 364.291L327.037 351.992L329.84 364.291L342.138 367.297Z" fill="#FDFDFD"/>
<path d="M162.705 496.453L155.787 497.741L154.249 505.021L152.712 497.741L145.817 496.453L152.689 494.78L154.249 487.907L155.832 494.78L162.705 496.453Z" fill="#FDFDFD"/>
<path d="M534.029 518.156L527.111 519.444L525.574 526.701L524.036 519.444L517.141 518.156L524.014 516.483L525.574 509.61L527.156 516.483L534.029 518.156Z" fill="#FDFDFD"/>
<path d="M67.7314 543.656L60.8136 544.922L59.2763 552.202L57.739 544.922L50.8438 543.656L57.7164 541.984L59.2763 535.111L60.8362 541.984L67.7314 543.656Z" fill="#FDFDFD"/>
<path d="M367.91 537.598L361.015 538.886L359.478 546.143L357.918 538.886L351.023 537.598L357.895 535.925L359.478 529.052L361.038 535.925L367.91 537.598Z" fill="#FDFDFD"/>
<path d="M317.383 347.516L310.488 348.782L308.951 356.062L307.413 348.782L300.496 347.494L307.368 345.821L308.951 338.948L310.511 345.821L317.383 347.516Z" fill="#FDFDFD"/>
<path d="M550.351 533.89C549.857 533.943 549.4 534.176 549.068 534.546C548.736 534.915 548.552 535.394 548.552 535.891C548.552 536.388 548.736 536.867 549.068 537.236C549.4 537.606 549.857 537.839 550.351 537.892C550.845 537.839 551.302 537.606 551.634 537.236C551.966 536.867 552.15 536.388 552.15 535.891C552.15 535.394 551.966 534.915 551.634 534.546C551.302 534.176 550.845 533.943 550.351 533.89Z" fill="#FDFDFD"/>
<path d="M290.774 322.264C290.28 322.316 289.823 322.55 289.491 322.919C289.159 323.289 288.975 323.768 288.975 324.264C288.975 324.761 289.159 325.24 289.491 325.61C289.823 325.979 290.28 326.213 290.774 326.265C291.268 326.213 291.725 325.979 292.058 325.61C292.39 325.24 292.574 324.761 292.574 324.264C292.574 323.768 292.39 323.289 292.058 322.919C291.725 322.55 291.268 322.316 290.774 322.264Z" fill="#FDFDFD"/>
<path d="M120 543.656C119.506 543.709 119.049 543.943 118.716 544.312C118.384 544.681 118.2 545.161 118.2 545.657C118.2 546.154 118.384 546.633 118.716 547.003C119.049 547.372 119.506 547.605 120 547.658C120.494 547.605 120.951 547.372 121.283 547.003C121.615 546.633 121.799 546.154 121.799 545.657C121.799 545.161 121.615 544.681 121.283 544.312C120.951 543.943 120.494 543.709 120 543.656Z" fill="#FDFDFD"/>
<path d="M246.804 516.166C246.31 516.219 245.853 516.452 245.521 516.821C245.188 517.191 245.005 517.67 245.005 518.167C245.005 518.663 245.188 519.143 245.521 519.512C245.853 519.881 246.31 520.115 246.804 520.167C247.298 520.115 247.755 519.881 248.087 519.512C248.419 519.143 248.603 518.663 248.603 518.167C248.603 517.67 248.419 517.191 248.087 516.821C247.755 516.452 247.298 516.219 246.804 516.166Z" fill="#FDFDFD"/>
<path d="M500.231 497.945C499.887 497.988 499.571 498.156 499.341 498.416C499.112 498.676 498.986 499.011 498.986 499.358C498.986 499.704 499.112 500.039 499.341 500.299C499.571 500.559 499.887 500.727 500.231 500.771C500.575 500.727 500.891 500.559 501.12 500.299C501.349 500.039 501.476 499.704 501.476 499.358C501.476 499.011 501.349 498.676 501.12 498.416C500.891 498.156 500.575 497.988 500.231 497.945Z" fill="#FDFDFD"/>
<path d="M325.364 476.694C324.986 476.694 324.624 476.844 324.357 477.111C324.09 477.378 323.94 477.74 323.94 478.118C323.94 478.496 324.09 478.858 324.357 479.125C324.624 479.392 324.986 479.542 325.364 479.542C325.742 479.542 326.104 479.392 326.371 479.125C326.638 478.858 326.788 478.496 326.788 478.118C326.788 477.74 326.638 477.378 326.371 477.111C326.104 476.844 325.742 476.694 325.364 476.694Z" fill="#FDFDFD"/>
<path d="M197.361 449.045C197.017 449.089 196.701 449.256 196.472 449.516C196.243 449.777 196.116 450.111 196.116 450.458C196.116 450.805 196.243 451.14 196.472 451.4C196.701 451.66 197.017 451.827 197.361 451.871C197.705 451.827 198.022 451.66 198.251 451.4C198.48 451.14 198.607 450.805 198.607 450.458C198.607 450.111 198.48 449.777 198.251 449.516C198.022 449.256 197.705 449.089 197.361 449.045Z" fill="#FDFDFD"/>
<path d="M416.358 454.81C415.339 454.81 414.361 455.215 413.64 455.936C412.92 456.656 412.515 457.634 412.515 458.653C412.515 459.673 412.92 460.65 413.64 461.371C414.361 462.092 415.339 462.497 416.358 462.497C417.377 462.497 418.355 462.092 419.075 461.371C419.796 460.65 420.201 459.673 420.201 458.653C420.201 457.634 419.796 456.656 419.075 455.936C418.355 455.215 417.377 454.81 416.358 454.81Z" fill="#FDFDFD"/>
<path d="M215.47 436.023C214.451 436.023 213.473 436.428 212.753 437.149C212.032 437.87 211.627 438.847 211.627 439.867C211.627 440.886 212.032 441.863 212.753 442.584C213.473 443.305 214.451 443.71 215.47 443.71C216.489 443.71 217.467 443.305 218.188 442.584C218.908 441.863 219.313 440.886 219.313 439.867C219.313 438.847 218.908 437.87 218.188 437.149C217.467 436.428 216.489 436.023 215.47 436.023Z" fill="#FDFDFD"/>
<defs>
<linearGradient id="paint0_linear_224_865" x1="177.809" y1="62.5966" x2="177.809" y2="332.914" gradientUnits="userSpaceOnUse">
<stop stop-color="#E63B34"/>
<stop offset="1" stop-color="#1E90FF" stop-opacity="0.18"/>
</linearGradient>
<linearGradient id="paint1_linear_224_865" x1="434.333" y1="62.7324" x2="434.333" y2="333.033" gradientUnits="userSpaceOnUse">
<stop stop-color="#E63B34"/>
<stop offset="1" stop-color="#1E90FF" stop-opacity="0.18"/>
</linearGradient>
<linearGradient id="paint2_linear_224_865" x1="306.599" y1="-37.7344" x2="306.599" y2="93.9303" gradientUnits="userSpaceOnUse">
<stop stop-color="#E63B34"/>
<stop offset="1" stop-color="#1E90FF" stop-opacity="0.18"/>
</linearGradient>
<linearGradient id="paint3_linear_224_865" x1="306.441" y1="260.32" x2="306.441" y2="294.705" gradientUnits="userSpaceOnUse">
<stop stop-color="#E63B34"/>
<stop offset="1" stop-color="#1E90FF" stop-opacity="0.18"/>
</linearGradient>
<linearGradient id="paint4_linear_224_865" x1="78.1986" y1="445.383" x2="78.1986" y2="478.163" gradientUnits="userSpaceOnUse">
<stop stop-color="#E63B34"/>
<stop offset="1" stop-color="#1E90FF" stop-opacity="0.18"/>
</linearGradient>
<linearGradient id="paint5_linear_224_865" x1="106.525" y1="422.459" x2="106.525" y2="438.42" gradientUnits="userSpaceOnUse">
<stop stop-color="#E63B34"/>
<stop offset="1" stop-color="#1E90FF" stop-opacity="0.18"/>
</linearGradient>
<linearGradient id="paint6_linear_224_865" x1="457.096" y1="445.812" x2="457.096" y2="461.773" gradientUnits="userSpaceOnUse">
<stop stop-color="#E63B34"/>
<stop offset="1" stop-color="#1E90FF" stop-opacity="0.18"/>
</linearGradient>
<linearGradient id="paint7_linear_224_865" x1="617.02" y1="518.721" x2="617.02" y2="534.681" gradientUnits="userSpaceOnUse">
<stop stop-color="#E63B34"/>
<stop offset="1" stop-color="#1E90FF" stop-opacity="0.18"/>
</linearGradient>
<linearGradient id="paint8_linear_224_865" x1="306.385" y1="294.479" x2="306.385" y2="559.572" gradientUnits="userSpaceOnUse">
<stop stop-color="#E63B34"/>
<stop offset="1" stop-color="#1E90FF" stop-opacity="0.18"/>
</linearGradient>
</defs>
</svg>
